HIERARCHY
ROOT Hips
{
	OFFSET 0.000000 0.000000 0.000000
	CHANNELS 6 Xposition Yposition Zposition Xrotation Yrotation Zrotation
	JOINT LeftUpLeg_virtual
	{
		OFFSET 0.000000 0.000000 0.000000
		CHANNELS 3 Xrotation Yrotation Zrotation
		JOINT LeftUpLeg
		{
			OFFSET 11.394100 -6.187798 -0.413800
			CHANNELS 3 Xrotation Yrotation Zrotation
			JOINT LeftLeg
			{
				OFFSET 0.430247 -32.302673 3.732800
				CHANNELS 3 Xrotation Yrotation Zrotation
				JOINT LeftFoot
				{
					OFFSET -0.430247 -48.264931 -6.423300
					CHANNELS 3 Xrotation Yrotation Zrotation
					JOINT LeftToeBase
					{
						OFFSET 4.230900 -16.068199 23.438400
						CHANNELS 3 Xrotation Yrotation Zrotation
						JOINT LeftToe_End
						{
							OFFSET 4.510700 0.695400 19.974600
							CHANNELS 3 Xrotation Yrotation Zrotation
							End Site
							{
								OFFSET 0 0 0
							}
						}
					}
				}
			}
		}
	}
	JOINT RightUpLeg_virtual
	{
		OFFSET 0.000000 0.000000 0.000000
		CHANNELS 3 Xrotation Yrotation Zrotation
		JOINT RightUpLeg
		{
			OFFSET -11.333700 -6.187798 -0.413800
			CHANNELS 3 Xrotation Yrotation Zrotation
			JOINT RightLeg
			{
				OFFSET -0.430392 -32.302628 3.733000
				CHANNELS 3 Xrotation Yrotation Zrotation
				JOINT RightFoot
				{
					OFFSET 0.430392 -48.264973 -6.423500
					CHANNELS 3 Xrotation Yrotation Zrotation
					JOINT RightToeBase
					{
						OFFSET -4.230900 -16.068199 23.438400
						CHANNELS 3 Xrotation Yrotation Zrotation
						JOINT RightToe_End
						{
							OFFSET -4.510700 0.695400 19.974600
							CHANNELS 3 Xrotation Yrotation Zrotation
							End Site
							{
								OFFSET 0 0 0
							}
						}
					}
				}
			}
		}
	}
	JOINT Spine_virtual
	{
		OFFSET 0.000000 0.000000 0.000000
		CHANNELS 3 Xrotation Yrotation Zrotation
		JOINT Spine
		{
			OFFSET -0.002400 12.777504 0.315300
			CHANNELS 3 Xrotation Yrotation Zrotation
			JOINT Spine1
			{
				OFFSET -0.002067 5.816869 0.032633
				CHANNELS 3 Xrotation Yrotation Zrotation
				JOINT Spine1_split
				{
					OFFSET -0.002067 5.816869 0.032633
					CHANNELS 3 Xrotation Yrotation Zrotation
					JOINT Spine2
					{
						OFFSET -0.002067 5.816869 0.032633
						CHANNELS 3 Xrotation Yrotation Zrotation
						JOINT Neck_virtual
						{
							OFFSET 0.000000 0.000000 0.000000
							CHANNELS 3 Xrotation Yrotation Zrotation
							JOINT Neck
							{
								OFFSET -0.003700 21.199493 -0.826900
								CHANNELS 3 Xrotation Yrotation Zrotation
								JOINT Head
								{
									OFFSET 0.000000 20.442200 4.834800
									CHANNELS 3 Xrotation Yrotation Zrotation
									JOINT HeadTop_End
									{
										OFFSET 0.000000 34.668396 4.968400
										CHANNELS 3 Xrotation Yrotation Zrotation
										End Site
										{
											OFFSET 0 0 0
										}
									}
								}
							}
						}
						JOINT LeftShoulder_virtual
						{
							OFFSET 0.000000 0.000000 0.000000
							CHANNELS 3 Xrotation Yrotation Zrotation
							JOINT LeftShoulder
							{
								OFFSET 3.288150 8.794197 -1.372250
								CHANNELS 3 Xrotation Yrotation Zrotation
								JOINT LeftShoulder_split
								{
									OFFSET 3.288150 8.794197 -1.372250
									CHANNELS 3 Xrotation Yrotation Zrotation
									JOINT LeftArm
									{
										OFFSET 11.953299 -2.279007 -0.146200
										CHANNELS 3 Xrotation Yrotation Zrotation
										JOINT LeftForeArm
										{
											OFFSET 18.448900 0.000000 0.000000
											CHANNELS 3 Xrotation Yrotation Zrotation
											JOINT LeftHand
											{
												OFFSET 29.527798 0.000000 0.000000
												CHANNELS 3 Xrotation Yrotation Zrotation
												End Site
												{
													OFFSET 0 0 0
												}
											}
										}
									}
								}
							}
						}
						JOINT RightShoulder_virtual
						{
							OFFSET 0.000000 0.000000 0.000000
							CHANNELS 3 Xrotation Yrotation Zrotation
							JOINT RightShoulder
							{
								OFFSET -3.249400 8.794197 -1.372250
								CHANNELS 3 Xrotation Yrotation Zrotation
								JOINT RightShoulder_split
								{
									OFFSET -3.249400 8.794197 -1.372250
									CHANNELS 3 Xrotation Yrotation Zrotation
									JOINT RightArm
									{
										OFFSET -11.953299 -2.279007 -0.146200
										CHANNELS 3 Xrotation Yrotation Zrotation
										JOINT RightForeArm
										{
											OFFSET -18.448900 0.000000 0.000000
											CHANNELS 3 Xrotation Yrotation Zrotation
											JOINT RightHand
											{
												OFFSET -29.527802 0.000000 0.000000
												CHANNELS 3 Xrotation Yrotation Zrotation
												End Site
												{
													OFFSET 0 0 0
												}
											}
										}
									}
								}
							}
						}
					}
				}
			}
		}
	}
}
MOTION
Frames: 9
Frame Time: 0.03333333
0.063760 91.718643 -1.593826 0.000000 0.000000 0.000000 -23.094587 -5.681412 -1.881396 -112.326293 -3.536273 31.300831 123.625919 -20.462108 0.335919 -6.602797 0.130027 4.976770 -46.495331 -2.668700 -1.962206 0.000000 0.000000 0.000000 -23.094587 -5.681412 -1.881396 -132.427095 9.115932 -32.758912 128.536223 19.486388 -2.194243 2.035509 -1.194244 9.867844 -38.850116 6.007516 10.674952 0.000000 0.000000 0.000000 -23.094587 -5.681412 -1.881396 7.688473 -0.922629 -0.315809 15.374075 -1.676405 -0.551058 0.000000 0.000000 0.000000 0.000000 0.000000 0.000000 15.374078 -1.676405 -0.551058 -11.803036 2.538410 0.513533 -20.543597 1.060038 1.922753 0.000000 0.000000 0.000000 15.374078 -1.676405 -0.551058 -0.117974 -1.799430 36.289437 0.000000 0.000000 0.000000 -52.783210 -25.523871 -11.661700 -14.599478 -27.801862 2.187902 0.000000 0.000000 0.000000 15.374078 -1.676405 -0.551058 9.813664 24.196319 -37.946062 0.000000 0.000000 0.000000 -46.242191 23.161320 -4.673687 -22.075469 26.224105 3.020030 0.000000 0.000000 0.000000 
0.018373 91.285698 -1.537283 0.000000 0.000000 0.000000 -22.412846 -5.641354 -1.903779 -113.897304 -3.935100 30.620274 124.133566 -19.852257 0.363467 -6.656174 0.252953 4.729544 -46.159761 -2.756071 -2.168688 0.000000 0.000000 0.000000 -22.412846 -5.641354 -1.903779 -133.671255 9.206613 -31.582043 128.820482 19.133322 -2.185143 1.511629 -1.388461 10.458615 -38.305432 5.515455 10.350252 0.000000 0.000000 0.000000 -22.412846 -5.641354 -1.903779 7.520855 -0.850764 -0.236717 15.039627 -1.534572 -0.418301 0.000000 0.000000 0.000000 0.000000 0.000000 0.000000 15.039639 -1.534572 -0.418302 -17.769910 2.710621 0.790330 -16.597923 1.605600 1.335112 0.000000 0.000000 0.000000 15.039639 -1.534572 -0.418302 -0.794088 -0.411283 37.037650 0.000000 0.000000 0.000000 -53.107367 -25.119631 -13.105115 -14.758149 -28.996670 2.732931 0.000000 0.000000 0.000000 15.039639 -1.534572 -0.418302 9.273475 22.311031 -38.387907 0.000000 0.000000 0.000000 -46.870920 23.501721 -2.942151 -21.212587 27.007449 1.920317 0.000000 0.000000 0.000000 
-0.031568 91.202621 -1.548107 0.000000 0.000000 0.000000 -21.403870 -5.588922 -1.994128 -115.552348 -4.170465 29.885660 124.288010 -18.980261 0.409286 -5.901732 0.325855 4.797804 -46.431479 -2.676306 -2.635141 0.000000 0.000000 0.000000 -21.403870 -5.588922 -1.994128 -134.831732 8.904799 -30.405516 128.750241 18.344918 -2.172883 1.695874 -1.451681 10.516432 -38.572592 4.945656 10.564797 0.000000 0.000000 0.000000 -21.403870 -5.588922 -1.994128 7.137577 -0.782001 -0.128767 14.274076 -1.394823 -0.228714 0.000000 0.000000 0.000000 0.000000 0.000000 0.000000 14.274074 -1.394824 -0.228714 -23.605306 2.824560 1.341884 -12.221445 2.150335 0.584533 0.000000 0.000000 0.000000 14.274074 -1.394824 -0.228714 -1.351302 0.585398 37.896560 0.000000 0.000000 0.000000 -54.106313 -24.663991 -16.084365 -14.545339 -29.884171 3.360787 0.000000 0.000000 0.000000 14.274074 -1.394824 -0.228714 8.659222 20.554177 -38.660763 0.000000 0.000000 0.000000 -48.041119 24.002518 0.198533 -20.014606 28.209940 0.737838 0.000000 0.000000 0.000000 
-0.077780 91.618584 -1.651043 0.000000 0.000000 0.000000 -20.338220 -5.592085 -2.220470 -116.896024 -4.228115 29.232076 123.889659 -17.783550 0.490811 -3.727087 0.363365 5.178407 -48.146512 -2.506473 -3.460481 0.000000 0.000000 0.000000 -20.338220 -5.592085 -2.220470 -135.575758 8.024999 -29.317245 128.203293 16.922921 -2.219066 3.104464 -1.298857 9.968580 -40.197176 4.385923 11.524875 0.000000 0.000000 0.000000 -20.338220 -5.592085 -2.220470 6.590503 -0.723237 0.015312 13.181097 -1.275150 0.029299 0.000000 0.000000 0.000000 0.000000 0.000000 0.000000 13.181101 -1.275146 0.029298 -28.539143 2.791946 2.010080 -7.542242 2.563847 -0.228354 0.000000 0.000000 0.000000 13.181101 -1.275146 0.029298 -1.573340 0.806857 38.796875 0.000000 0.000000 0.000000 -55.559870 -23.610617 -20.463440 -13.992634 -30.797012 4.188684 0.000000 0.000000 0.000000 13.181101 -1.275146 0.029298 8.245030 19.384434 -38.889888 0.000000 0.000000 0.000000 -49.481241 24.303615 4.418799 -18.794247 29.794112 -0.558940 0.000000 0.000000 0.000000 
-0.094246 92.682304 -1.937634 0.000000 0.000000 0.000000 -20.065725 -5.667195 -2.653734 -116.672554 -4.022634 28.919724 122.625555 -16.440588 0.588565 0.015038 0.377905 5.779295 -51.749236 -2.405045 -4.542486 0.000000 0.000000 0.000000 -20.065725 -5.667195 -2.653734 -134.657507 6.523942 -28.578205 126.936033 15.007913 -2.315422 5.799039 -0.949915 8.942842 -43.397431 4.064412 13.210411 0.000000 0.000000 0.000000 -20.065725 -5.667195 -2.653734 6.164981 -0.679651 0.181077 12.331302 -1.188794 0.330882 0.000000 0.000000 0.000000 0.000000 0.000000 0.000000 12.331292 -1.188789 0.330881 -31.678021 2.558238 2.544753 -2.949756 2.705118 -0.921438 0.000000 0.000000 0.000000 12.331292 -1.188789 0.330881 -1.275761 0.062679 39.435122 0.000000 0.000000 0.000000 -56.937007 -21.631103 -25.178328 -13.343855 -32.183824 5.250929 0.000000 0.000000 0.000000 12.331292 -1.188789 0.330881 8.219833 19.112900 -39.109902 0.000000 0.000000 0.000000 -50.738593 24.159294 8.711651 -17.936849 31.430844 -1.919359 0.000000 0.000000 0.000000 
-0.039331 94.532967 -2.589478 0.000000 0.000000 0.000000 -21.682115 -5.727862 -3.317594 -113.119161 -3.313395 29.168046 120.124122 -15.243889 0.657244 4.621090 0.368603 6.439755 -56.577916 -2.476432 -5.582933 0.000000 0.000000 0.000000 -21.682115 -5.727862 -3.317594 -130.119311 4.480292 -28.476112 124.527982 13.185678 -2.348826 8.965122 -0.579291 7.744991 -47.648984 4.212237 15.261969 0.000000 0.000000 0.000000 -21.682115 -5.727862 -3.317594 6.312096 -0.650237 0.331460 12.626646 -1.129670 0.613264 0.000000 0.000000 0.000000 0.000000 0.000000 0.000000 12.626648 -1.129669 0.613263 -32.525200 2.181567 2.774181 0.886725 2.532701 -1.329374 0.000000 0.000000 0.000000 12.626648 -1.129669 0.613263 -0.516013 -1.365471 39.257892 0.000000 0.000000 0.000000 -57.919348 -19.070457 -28.772349 -12.790889 -34.687857 6.600251 0.000000 0.000000 0.000000 12.626648 -1.129669 0.613263 8.437773 19.559372 -39.055295 0.000000 0.000000 0.000000 -51.660727 23.779804 11.868933 -17.479994 32.931081 -3.320799 0.000000 0.000000 0.000000 
0.123250 97.333435 -3.819443 0.000000 0.000000 0.000000 -25.656627 -5.647738 -4.164466 -105.225498 -1.688341 29.895294 115.974044 -14.262910 0.706355 9.235299 0.380626 7.065456 -61.370151 -2.647154 -6.415685 0.000000 0.000000 0.000000 -25.656627 -5.647738 -4.164466 -120.771159 1.732805 -28.943784 120.445277 11.920453 -2.278187 11.742697 -0.387826 6.570172 -52.144574 4.772919 17.315539 0.000000 0.000000 0.000000 -25.656627 -5.647738 -4.164466 7.335294 -0.627224 0.433700 14.673833 -1.076008 0.818298 0.000000 0.000000 0.000000 0.000000 0.000000 0.000000 14.673850 -1.076014 0.818299 -31.236340 1.815643 2.737698 3.236764 2.155826 -1.413136 0.000000 0.000000 0.000000 14.673850 -1.076014 0.818299 0.349715 -2.840393 37.692966 0.000000 0.000000 0.000000 -58.946568 -16.925538 -30.604753 -12.214866 -38.578001 8.350514 0.000000 0.000000 0.000000 14.673850 -1.076014 0.818299 8.450939 20.232859 -38.178425 0.000000 0.000000 0.000000 -52.703744 23.830549 13.355970 -17.176672 34.347922 -4.788395 0.000000 0.000000 0.000000 
0.399871 101.264160 -5.751108 0.000000 0.000000 0.000000 -31.363399 -5.387339 -5.093936 -93.360633 1.294713 30.684256 109.569642 -13.470408 0.821623 13.497218 0.527222 7.644370 -65.564113 -2.742762 -7.186678 0.000000 0.000000 0.000000 -31.363399 -5.387339 -5.093936 -107.378681 -2.209775 -29.399614 114.203755 11.161030 -2.339918 14.174575 -0.448181 5.355469 -56.568761 5.227826 19.278385 0.000000 0.000000 0.000000 -31.363399 -5.387339 -5.093936 9.152234 -0.603857 0.481887 18.308192 -1.011842 0.932750 0.000000 0.000000 0.000000 0.000000 0.000000 0.000000 18.308192 -1.011848 0.932750 -28.356606 1.572494 2.536689 3.720168 1.743144 -1.223751 0.000000 0.000000 0.000000 18.308192 -1.011848 0.932750 0.920392 -3.760772 34.485082 0.000000 0.000000 0.000000 -60.840074 -16.273590 -31.318565 -11.269931 -43.196036 10.631752 0.000000 0.000000 0.000000 18.308192 -1.011848 0.932750 7.987835 20.978554 -36.039036 0.000000 0.000000 0.000000 -54.390767 24.929227 13.385013 -17.024578 35.667972 -6.156525 0.000000 0.000000 0.000000 
0.758795 106.490929 -8.330637 0.000000 0.000000 0.000000 -37.420605 -5.038326 -5.984209 -78.810186 5.763802 30.918549 99.999434 -12.999667 1.021270 17.870686 0.808720 7.993670 -70.151377 -2.687662 -8.056346 0.000000 0.000000 0.000000 -37.420605 -5.038326 -5.984209 -91.994090 -7.480396 -29.083263 105.467806 10.682100 -2.799073 17.127328 -0.606052 3.973165 -61.373068 4.946722 21.296272 0.000000 0.000000 0.000000 -37.420605 -5.038326 -5.984209 11.330522 -0.584816 0.489735 22.665161 -0.942750 0.994058 0.000000 0.000000 0.000000 0.000000 0.000000 0.000000 22.665173 -0.942751 0.994058 -24.389540 1.374045 2.074508 2.747543 1.350886 -0.784066 0.000000 0.000000 0.000000 22.665173 -0.942751 0.994058 1.102649 -3.935423 29.877344 0.000000 0.000000 0.000000 -63.981578 -17.386622 -32.467396 -9.460644 -47.470091 13.619823 0.000000 0.000000 0.000000 22.665173 -0.942751 0.994058 7.325001 22.385791 -32.659502 0.000000 0.000000 0.000000 -56.528428 27.027337 12.347758 -17.130941 36.973201 -7.010555 0.000000 0.000000 0.000000 
